<?xml version="1.0" encoding="UTF-8" standalone="no"?>
<!-- Created with Inkscape (http://www.inkscape.org/) -->

<svg
   xmlns:dc="http://purl.org/dc/elements/1.1/"
   xmlns:cc="http://creativecommons.org/ns#"
   xmlns:rdf="http://www.w3.org/1999/02/22-rdf-syntax-ns#"
   xmlns:svg="http://www.w3.org/2000/svg"
   xmlns="http://www.w3.org/2000/svg"
   xmlns:sodipodi="http://sodipodi.sourceforge.net/DTD/sodipodi-0.dtd"
   xmlns:inkscape="http://www.inkscape.org/namespaces/inkscape"
   width="32.000011"
   height="32.000011"
   viewBox="0 0 8.4666694 8.4666699"
   version="1.1"
   id="svg8"
   inkscape:version="0.92.3 (unknown)"
   sodipodi:docname="drawing.svg">
  <defs
     id="defs2" />
  <sodipodi:namedview
     id="base"
     pagecolor="#ccbebe"
     bordercolor="#666666"
     borderopacity="1.0"
     inkscape:pageopacity="0"
     inkscape:pageshadow="2"
     inkscape:zoom="5.6568542"
     inkscape:cx="42.085228"
     inkscape:cy="1.7389555"
     inkscape:document-units="px"
     inkscape:current-layer="layer2"
     showgrid="false"
     showguides="false"
     inkscape:window-width="1680"
     inkscape:window-height="996"
     inkscape:window-x="0"
     inkscape:window-y="0"
     inkscape:window-maximized="1"
     units="px" />
  <metadata
     id="metadata5">
    <rdf:RDF>
      <cc:Work
         rdf:about="">
        <dc:format>image/svg+xml</dc:format>
        <dc:type
           rdf:resource="http://purl.org/dc/dcmitype/StillImage" />
        <dc:title></dc:title>
      </cc:Work>
    </rdf:RDF>
  </metadata>
  <g
     inkscape:groupmode="layer"
     id="layer2"
     inkscape:label="Layer 2"
     style="display:inline"
     transform="translate(-100.11585,-121.1207)">
    <path
       id="path180"
       style="display:inline;fill:#ffffff;stroke-width:0.19843596"
       d="m 106.01165,124.16032 a 0.46064445,0.46066538 0 0 1 -0.46064,0.46066 0.46064445,0.46066538 0 0 1 -0.46065,-0.46066 0.46064445,0.46066538 0 0 1 0.46065,-0.46067 0.46064445,0.46066538 0 0 1 0.46064,0.46067 z m -0.90357,1.0985 a 0.8149864,0.77958761 0 0 1 -0.81498,0.77958 0.8149864,0.77958761 0 0 1 -0.815,-0.77958 0.8149864,0.77958761 0 0 1 0.815,-0.77958 0.8149864,0.77958761 0 0 1 0.81498,0.77958 z m -2.45382,-0.0353 v 1.7007 h 3.25979 v -1.7007 h -0.28796 a 1.3464987,1.3465599 0 0 1 0.004,0.10619 1.3464987,1.3465599 0 0 1 -1.34639,1.34645 1.3464987,1.3465599 0 0 1 -1.34678,-1.34645 1.3464987,1.3465599 0 0 1 0.005,-0.10619 z m 1.69492,-4.10282 a 4.2332042,4.2333966 0 0 0 -4.23333,4.23314 4.2332042,4.2333966 0 0 0 4.23333,4.23353 4.2332042,4.2333966 0 0 0 4.23334,-4.23353 4.2332042,4.2333966 0 0 0 -4.23334,-4.23314 z m -2.24863,2.01192 h 4.32286 v 4.35872 h -4.32286 z"
       inkscape:connector-curvature="0" />
  </g>
</svg>
