<?xml version="1.0" encoding="UTF-8" standalone="no"?>
<svg
   xmlns:dc="http://purl.org/dc/elements/1.1/"
   xmlns:cc="http://creativecommons.org/ns#"
   xmlns:rdf="http://www.w3.org/1999/02/22-rdf-syntax-ns#"
   xmlns:svg="http://www.w3.org/2000/svg"
   xmlns="http://www.w3.org/2000/svg"
   id="svg8"
   version="1.1"
   viewBox="0 0 8.4666694 8.4666699"
   height="32.000011"
   width="32.000011">
  <defs
     id="defs2" />
  <metadata
     id="metadata5">
    <rdf:RDF>
      <cc:Work
         rdf:about="">
        <dc:format>image/svg+xml</dc:format>
        <dc:type
           rdf:resource="http://purl.org/dc/dcmitype/StillImage" />
        <dc:title></dc:title>
      </cc:Work>
    </rdf:RDF>
  </metadata>
  <g
     transform="translate(-100.11585,-121.1207)"
     style="display:inline"
     id="layer2">
    <path
       d="m 106.01165,124.16032 a 0.46064445,0.46066538 0 0 1 -0.46064,0.46066 0.46064445,0.46066538 0 0 1 -0.46065,-0.46066 0.46064445,0.46066538 0 0 1 0.46065,-0.46067 0.46064445,0.46066538 0 0 1 0.46064,0.46067 z m -0.90357,1.0985 a 0.8149864,0.77958761 0 0 1 -0.81498,0.77958 0.8149864,0.77958761 0 0 1 -0.815,-0.77958 0.8149864,0.77958761 0 0 1 0.815,-0.77958 0.8149864,0.77958761 0 0 1 0.81498,0.77958 z m -2.45382,-0.0353 v 1.7007 h 3.25979 v -1.7007 h -0.28796 a 1.3464987,1.3465599 0 0 1 0.004,0.10619 1.3464987,1.3465599 0 0 1 -1.34639,1.34645 1.3464987,1.3465599 0 0 1 -1.34678,-1.34645 1.3464987,1.3465599 0 0 1 0.005,-0.10619 z m 1.69492,-4.10282 a 4.2332042,4.2333966 0 0 0 -4.23333,4.23314 4.2332042,4.2333966 0 0 0 4.23333,4.23353 4.2332042,4.2333966 0 0 0 4.23334,-4.23353 4.2332042,4.2333966 0 0 0 -4.23334,-4.23314 z m -2.24863,2.01192 h 4.32286 v 4.35872 h -4.32286 z"
       style="display:inline;fill:#ffffff;stroke-width:0.19843596"
       id="path180" />
  </g>
</svg>
